<svg viewBox="0 0 214 41" fill="none" xmlns="http://www.w3.org/2000/svg"><path fill="currentColor" d="M8.20827 32V9.536h-5.724V6.8H17.0643v2.736h-5.724V32H8.20827Zm27.72143-5.76c0 2.016-.504 3.48-1.512 4.392-.984.912-2.52 1.368-4.608 1.368h-1.188c-2.088 0-3.636-.456-4.644-1.368-.984-.912-1.476-2.376-1.476-4.392v-6.48c0-2.016.492-3.48 1.476-4.392 1.008-.912 2.556-1.368 4.644-1.368h1.188c2.088 0 3.624.456 4.608 1.368 1.008.912 1.512 2.376 1.512 4.392v6.48Zm-3.06-7.2c0-.744-.228-1.32-.684-1.728-.456-.408-1.128-.612-2.016-.612h-1.908c-.888 0-1.56.204-2.016.612-.456.408-.684.984-.684 1.728v7.92c0 .744.228 1.32.684 1.728.456.408 1.128.612 2.016.612h1.908c.888 0 1.56-.204 2.016-.612.456-.408.684-.984.684-1.728v-7.92ZM43.2031 14v.828c.624-.552 1.368-.828 2.232-.828h.216c1.68 0 2.868.48 3.564 1.44.792-.96 1.836-1.44 3.132-1.44h.216c1.464 0 2.544.372 3.24 1.116.696.744 1.044 2.064 1.044 3.96V32h-2.88V19.04c0-.984-.108-1.668-.324-2.052-.192-.384-.648-.576-1.368-.576h-.216c-.72 0-1.224.252-1.512.756-.264.48-.408 1.02-.432 1.62V32h-2.88V19.04c0-1.008-.12-1.692-.36-2.052-.24-.384-.672-.576-1.296-.576h-.216c-.72 0-1.224.216-1.512.648-.288.408-.444.876-.468 1.404V32h-2.88V14h2.7Zm30.2054 18c-.312 0-.66-.096-1.044-.288-.36-.192-.672-.456-.936-.792-.552.72-1.284 1.08-2.196 1.08h-3.204c-1.824 0-3.156-.36-3.996-1.08-.816-.744-1.224-2.004-1.224-3.78v-.72c0-3.72 1.752-5.58 5.256-5.58h4.464v-1.8c0-.744-.228-1.32-.684-1.728-.456-.408-1.128-.612-2.016-.612h-5.58V14h5.22c2.088 0 3.624.456 4.608 1.368 1.008.912 1.512 2.376 1.512 4.392v8.64c0 .36.132.636.396.828.288.168.756.252 1.404.252V32h-1.98Zm-4.536-2.7c.72 0 1.176-.168 1.368-.504.192-.336.288-.768.288-1.296v-3.96h-4.5c-.624 0-1.14.204-1.548.612-.408.408-.612.924-.612 1.548v1.8c0 .624.144 1.08.432 1.368.288.288.744.432 1.368.432h3.204ZM88.8899 32c-1.224 0-2.16-.396-2.808-1.188-.648-.792-.972-1.836-.972-3.132V16.7h-3.42V14h3.42V9.68h3.06V14h5.256v2.7h-5.256v11.16c0 .528.132.9.396 1.116.264.216.672.324 1.224.324h3.636V32h-4.536Zm24.8051-5.76c0 2.016-.504 3.48-1.512 4.392-.984.912-2.52 1.368-4.608 1.368h-1.188c-2.088 0-3.636-.456-4.644-1.368-.984-.912-1.476-2.376-1.476-4.392v-6.48c0-2.016.492-3.48 1.476-4.392 1.008-.912 2.556-1.368 4.644-1.368h1.188c2.088 0 3.624.456 4.608 1.368 1.008.912 1.512 2.376 1.512 4.392v6.48Zm-3.06-7.2c0-.744-.228-1.32-.684-1.728-.456-.408-1.128-.612-2.016-.612h-1.908c-.888 0-1.56.204-2.016.612-.456.408-.684.984-.684 1.728v7.92c0 .744.228 1.32.684 1.728.456.408 1.128.612 2.016.612h1.908c.888 0 1.56-.204 2.016-.612.456-.408.684-.984.684-1.728v-7.92ZM144.298 32V9.536h-5.724V6.8h14.58v2.736h-5.724V32h-3.132Zm22.718-25.2v3.24h-3.42V6.8h3.42Zm-8.532 9.9V14h8.352v15.3h5.328V32h-8.388V16.7h-5.292Zm20.809-2.7v.828c.624-.552 1.368-.828 2.232-.828h.216c1.68 0 2.868.48 3.564 1.44.792-.96 1.836-1.44 3.132-1.44h.216c1.464 0 2.544.372 3.24 1.116.696.744 1.044 2.064 1.044 3.96V32h-2.88V19.04c0-.984-.108-1.668-.324-2.052-.192-.384-.648-.576-1.368-.576h-.216c-.72 0-1.224.252-1.512.756-.264.48-.408 1.02-.432 1.62V32h-2.88V19.04c0-1.008-.12-1.692-.36-2.052-.24-.384-.672-.576-1.296-.576h-.216c-.72 0-1.224.216-1.512.648-.288.408-.444.876-.468 1.404V32h-2.88V14h2.7Zm24.697 18c-2.112 0-3.66-.444-4.644-1.332-.984-.912-1.476-2.388-1.476-4.428v-6.48c0-2.064.444-3.54 1.332-4.428.888-.888 2.364-1.332 4.428-1.332h1.692c1.704 0 2.988.48 3.852 1.44.888.936 1.332 2.316 1.332 4.14v4.68h-9.576v2.7c0 .744.228 1.32.684 1.728.456.408 1.128.612 2.016.612h5.724V32h-5.364Zm3.528-13.14c0-.624-.204-1.14-.612-1.548-.408-.408-.924-.612-1.548-.612h-2.088c-.864 0-1.476.204-1.836.612-.336.384-.504.96-.504 1.728v2.52h6.588v-2.7Z"/></svg>